<svg width="149" height="50" viewBox="0 0 149 50" fill="none" xmlns="http://www.w3.org/2000/svg">
<path d="M61.2045 15.5455L64.0682 20.625H64.2045L67.1023 15.5455H72.3864L67.1705 24.2727L72.5909 33H67.1705L64.2045 27.8182H64.0682L61.1023 33H55.7159L61.0682 24.2727L55.8864 15.5455H61.2045ZM79.1683 15.5455V33H74.4297V15.5455H79.1683Z" fill="#22C55E"/>
<path d="M85.3686 25.4318V33H81.7379V19.9091H85.1982V22.2188H85.3516C85.6413 21.4574 86.1271 20.8551 86.8089 20.4119C87.4908 19.9631 88.3175 19.7386 89.2891 19.7386C90.1982 19.7386 90.9908 19.9375 91.6669 20.3352C92.343 20.733 92.8686 21.3011 93.2436 22.0398C93.6186 22.7727 93.8061 23.6477 93.8061 24.6648V33H90.1754V25.3125C90.1811 24.5114 89.9766 23.8864 89.5618 23.4375C89.147 22.983 88.576 22.7557 87.8487 22.7557C87.3601 22.7557 86.9283 22.8608 86.5533 23.071C86.1839 23.2812 85.8942 23.5881 85.6839 23.9915C85.4794 24.3892 85.3743 24.8693 85.3686 25.4318ZM102.565 38.1818C101.389 38.1818 100.381 38.0199 99.5398 37.696C98.7045 37.3778 98.0398 36.9432 97.5455 36.392C97.0511 35.8409 96.7301 35.2216 96.5824 34.5341L99.9403 34.0824C100.043 34.3438 100.205 34.5881 100.426 34.8153C100.648 35.0426 100.94 35.2244 101.304 35.3608C101.673 35.5028 102.122 35.5739 102.651 35.5739C103.44 35.5739 104.091 35.3807 104.602 34.9943C105.119 34.6136 105.378 33.9744 105.378 33.0767V30.6818H105.224C105.065 31.0455 104.827 31.3892 104.509 31.7131C104.19 32.0369 103.781 32.3011 103.281 32.5057C102.781 32.7102 102.185 32.8125 101.491 32.8125C100.509 32.8125 99.6136 32.5852 98.8068 32.1307C98.0057 31.6705 97.3665 30.9687 96.8892 30.0256C96.4176 29.0767 96.1818 27.8778 96.1818 26.429C96.1818 24.946 96.4233 23.7074 96.9062 22.7131C97.3892 21.7187 98.0313 20.9744 98.8324 20.4801C99.6392 19.9858 100.523 19.7386 101.483 19.7386C102.216 19.7386 102.83 19.8636 103.324 20.1136C103.818 20.358 104.216 20.6648 104.517 21.0341C104.824 21.3977 105.06 21.7557 105.224 22.108H105.361V19.9091H108.966V33.1278C108.966 34.2415 108.693 35.1733 108.148 35.9233C107.602 36.6733 106.847 37.2358 105.881 37.6108C104.92 37.9915 103.815 38.1818 102.565 38.1818ZM102.642 30.0852C103.227 30.0852 103.722 29.9403 104.125 29.6506C104.534 29.3551 104.847 28.9347 105.062 28.3892C105.284 27.8381 105.395 27.179 105.395 26.4119C105.395 25.6449 105.287 24.9801 105.071 24.4176C104.855 23.8494 104.543 23.4091 104.134 23.0966C103.724 22.7841 103.227 22.6278 102.642 22.6278C102.045 22.6278 101.543 22.7898 101.134 23.1136C100.724 23.4318 100.415 23.875 100.205 24.4432C99.9943 25.0114 99.8892 25.6676 99.8892 26.4119C99.8892 27.1676 99.9943 27.821 100.205 28.3722C100.42 28.9176 100.73 29.3409 101.134 29.642C101.543 29.9375 102.045 30.0852 102.642 30.0852ZM120.25 27.4261V19.9091H123.881V33H120.395V30.6222H120.259C119.963 31.3892 119.472 32.0057 118.784 32.4716C118.102 32.9375 117.27 33.1705 116.287 33.1705C115.412 33.1705 114.642 32.9716 113.977 32.5739C113.313 32.1761 112.793 31.6108 112.418 30.8778C112.048 30.1449 111.861 29.267 111.855 28.2443V19.9091H115.486V27.5966C115.491 28.3693 115.699 28.9801 116.108 29.429C116.517 29.8778 117.065 30.1023 117.753 30.1023C118.19 30.1023 118.599 30.0028 118.98 29.804C119.361 29.5994 119.668 29.2983 119.901 28.9006C120.139 28.5028 120.256 28.0114 120.25 27.4261ZM133.825 19.9091V22.6364H125.745V19.9091H133.825ZM127.594 33V18.9631C127.594 18.0142 127.779 17.2273 128.148 16.6023C128.523 15.9773 129.035 15.5085 129.683 15.196C130.33 14.8835 131.066 14.7273 131.89 14.7273C132.447 14.7273 132.955 14.7699 133.415 14.8551C133.881 14.9403 134.228 15.017 134.455 15.0852L133.808 17.8125C133.665 17.767 133.489 17.7244 133.279 17.6847C133.075 17.6449 132.864 17.625 132.648 17.625C132.114 17.625 131.742 17.75 131.532 18C131.322 18.2443 131.217 18.5881 131.217 19.0312V33H127.594ZM141.489 33.2557C140.165 33.2557 139.02 32.9744 138.054 32.4119C137.094 31.8437 136.352 31.054 135.83 30.0426C135.307 29.0256 135.045 27.8466 135.045 26.5057C135.045 25.1534 135.307 23.9716 135.83 22.9602C136.352 21.9432 137.094 21.1534 138.054 20.5909C139.02 20.0227 140.165 19.7386 141.489 19.7386C142.812 19.7386 143.955 20.0227 144.915 20.5909C145.881 21.1534 146.625 21.9432 147.148 22.9602C147.67 23.9716 147.932 25.1534 147.932 26.5057C147.932 27.8466 147.67 29.0256 147.148 30.0426C146.625 31.054 145.881 31.8437 144.915 32.4119C143.955 32.9744 142.812 33.2557 141.489 33.2557ZM141.506 30.4432C142.108 30.4432 142.611 30.2727 143.014 29.9318C143.418 29.5852 143.722 29.1136 143.926 28.517C144.136 27.9205 144.241 27.2415 144.241 26.4801C144.241 25.7188 144.136 25.0398 143.926 24.4432C143.722 23.8466 143.418 23.375 143.014 23.0284C142.611 22.6818 142.108 22.5085 141.506 22.5085C140.898 22.5085 140.386 22.6818 139.972 23.0284C139.563 23.375 139.253 23.8466 139.043 24.4432C138.838 25.0398 138.736 25.7188 138.736 26.4801C138.736 27.2415 138.838 27.9205 139.043 28.517C139.253 29.1136 139.563 29.5852 139.972 29.9318C140.386 30.2727 140.898 30.4432 141.506 30.4432Z" fill="black"/>
<path d="M45.2735 26.328C45.2833 26.2502 45.2833 26.1715 45.2735 26.0937C45.293 25.7226 45.3125 25.371 45.3125 24.9999C45.3193 20.3716 43.7331 15.8819 40.8203 12.2851C40.7525 12.1571 40.6595 12.0442 40.5469 11.953C38.3935 9.37902 35.6354 7.37922 32.5196 6.13273L32.3047 6.05461C27.6055 4.23147 22.3945 4.23147 17.6953 6.05461L17.4805 6.13273C14.3646 7.37922 11.6065 9.37902 9.45315 11.953C9.34055 12.0442 9.24754 12.1571 9.17971 12.2851C6.26691 15.8819 4.6807 20.3716 4.68752 24.9999C4.68752 25.371 4.70705 25.7226 4.72658 26.0937C4.71678 26.1715 4.71678 26.2502 4.72658 26.328C4.95184 29.6841 6.00538 32.9319 7.79299 35.7812C7.85307 35.8989 7.92506 36.0102 8.00783 36.1132C10.7531 40.3032 14.9459 43.3349 19.7852 44.6288H19.8438C23.2243 45.5142 26.7758 45.5142 30.1563 44.6288H30.2149C35.0541 43.3349 39.247 40.3032 41.9922 36.1132C42.075 36.0102 42.147 35.8989 42.2071 35.7812C43.9947 32.9319 45.0482 29.6841 45.2735 26.328ZM13.3789 22.871L15.9571 23.7109L18.4375 31.3671L16.8555 33.5546H10.0977C8.90407 31.5009 8.15858 29.2178 7.91018 26.8554L13.3789 22.871ZM36.6211 22.871L42.0899 26.8554C41.8415 29.2178 41.096 31.5009 39.9024 33.5546H33.1446L31.5625 31.3671L34.043 23.7109L36.6211 22.871ZM37.7344 13.4765L35.6446 19.9023L33.0664 20.7421L26.5625 15.996V13.3007L32.0313 9.31632C34.2026 10.2885 36.1455 11.7058 37.7344 13.4765ZM17.9688 9.31632L23.4375 13.3007V15.996L16.9336 20.7421L14.3555 19.9023L12.2656 13.4765C13.8545 11.7058 15.7975 10.2885 17.9688 9.31632ZM21.4844 41.8163L19.3946 35.3905L20.9766 33.203H29.0235L30.6055 35.3905L28.5156 41.8163C26.198 42.3112 23.802 42.3112 21.4844 41.8163Z" fill="#22C55E"/>
</svg>
